{"glyphs":{":":{"x_min":0,"x_max":275,"ha":275,"o":""},"$":{"x_min":0,"x_max":444,"ha":444,"o":"m 277 -2 q 272 -4 272 -8 l 273 -64 q 273 -69 270 -72 q 266 -76 261 -76 l 180 -76 q 175 -76 172 -72 q 168 -69 168 -64 l 169 -6 q 169 -2 165 -1 q 103 15 66 62 q 30 109 30 175 l 30 204 q 30 209 34 212 q 37 216 42 216 l 157 216 q 162 216 166 212 q 169 209 169 204 l 169 182 q 169 151 185 132 q 201 113 225 113 q 249 113 265 131 q 281 149 281 178 q 281 208 261 230 q 241 251 183 293 q 133 329 102 357 q 71 385 49 426 q 27 467 27 521 q 27 591 64 639 q 101 687 165 702 q 169 703 169 708 l 168 773 q 168 778 172 782 q 175 785 180 785 l 260 785 q 265 785 268 782 q 272 778 272 773 l 271 708 q 271 703 275 702 q 340 687 378 637 q 415 587 415 516 l 415 492 q 415 487 412 484 q 408 480 403 480 l 288 480 q 283 480 280 484 q 276 487 276 492 l 276 519 q 276 550 260 568 q 245 587 220 587 q 196 587 181 570 q 166 552 166 521 q 166 491 185 468 q 204 445 260 404 q 322 358 354 330 q 385 301 402 266 q 420 232 420 184 q 420 111 381 62 q 342 12 277 -2 z"},"?":{"x_min":0,"x_max":437,"ha":437,"o":"m 135 234 l 135 266 q 135 316 156 346 q 176 377 215 411 q 247 439 262 460 q 277 480 277 510 q 277 542 262 562 q 246 581 221 581 q 192 581 175 560 q 158 540 158 506 l 158 490 q 158 479 146 479 l 29 484 q 24 484 20 488 q 17 491 17 496 l 17 506 q 17 566 43 612 q 69 659 116 684 q 163 710 224 710 q 313 710 366 656 q 419 603 419 515 q 419 471 406 440 q 394 408 376 388 q 359 368 331 344 q 302 319 288 301 q 275 283 275 257 l 275 234 q 275 229 272 226 q 268 222 263 222 l 147 222 q 142 222 138 226 q 135 229 135 234 z m 127 77 q 127 112 149 134 q 171 155 205 155 q 240 155 262 133 q 284 111 284 77 q 284 43 262 20 q 240 -2 205 -2 q 171 -2 149 20 q 127 42 127 77 z"},"<":{"x_min":0,"x_max":438,"ha":438,"o":"m 401 54 l 33 224 q 24 229 24 238 l 24 339 q 24 349 33 353 l 401 523 q 403 524 406 524 q 415 524 415 513 l 415 404 q 415 395 406 390 l 166 292 q 160 289 166 286 l 406 187 q 415 183 415 173 l 415 64 q 415 57 411 54 q 407 51 401 54 z"},"'":{"x_min":0,"x_max":170,"ha":170,"o":"m 27 485 l 15 687 q 15 699 26 699 l 144 699 q 157 699 155 687 l 141 485 q 140 480 136 476 q 133 473 128 473 l 40 473 q 35 473 31 476 q 27 480 27 485 z"},"=":{"x_min":0,"x_max":438,"ha":438,"o":""},"a":{"x_min":0,"x_max":446,"ha":446,"o":"m 415 355 l 415 12 q 415 7 412 4 q 408 0 403 0 l 286 0 q 281 0 278 4 q 274 7 274 12 l 274 34 q 274 37 272 38 q 270 39 268 36 q 235 -6 166 -8 q 108 -8 66 24 q 23 56 23 146 q 23 239 74 274 q 126 309 223 309 l 269 309 q 274 309 274 314 l 274 339 q 274 366 260 384 q 245 401 223 401 q 206 401 194 390 q 183 380 180 361 q 179 349 167 349 l 47 350 q 35 350 35 362 q 40 435 92 478 q 144 522 224 522 q 309 522 362 476 q 415 430 415 355 z m 274 158 l 274 205 q 274 210 269 210 l 228 210 q 201 210 184 194 q 168 179 168 152 q 168 127 180 114 q 193 101 214 101 q 237 101 256 116 q 274 132 274 158 z"},"L":{"x_min":0,"x_max":426,"ha":426,"o":"m 44 12 l 44 688 q 44 693 48 696 q 51 700 56 700 l 173 700 q 178 700 182 696 q 185 693 185 688 l 185 126 q 185 121 190 121 l 400 121 q 405 121 408 118 q 412 114 412 109 l 412 12 q 412 7 408 4 q 405 0 400 0 l 56 0 q 51 0 48 4 q 44 7 44 12 z"},"3":{"x_min":0,"x_max":436,"ha":436,"o":"m 404 222 q 404 178 400 147 q 392 75 344 34 q 297 -8 217 -8 q 134 -8 82 36 q 30 80 26 153 q 23 180 23 211 q 23 223 35 223 l 152 223 q 164 223 164 211 q 164 188 167 168 q 170 142 183 128 q 196 113 217 113 q 237 113 250 127 q 263 141 267 165 q 270 200 270 237 q 270 284 265 311 q 261 334 248 346 q 236 359 217 359 q 202 359 187 346 q 181 342 179 342 q 175 342 170 347 l 110 408 q 106 412 106 417 q 106 421 109 425 l 230 574 q 232 576 231 578 q 230 580 227 580 l 47 580 q 42 580 38 584 q 35 587 35 592 l 35 688 q 35 693 38 696 q 42 700 47 700 l 391 700 q 396 700 400 696 q 403 693 403 688 l 403 588 q 403 580 398 573 l 286 432 q 285 430 285 428 q 285 426 287 426 q 331 422 362 386 q 392 350 399 296 q 404 258 404 222 z"},";":{"x_min":0,"x_max":232,"ha":232,"o":"m 31 400 q 31 435 57 460 q 83 486 116 486 q 149 486 175 460 q 201 435 201 400 q 201 363 177 338 q 153 313 116 313 q 79 313 55 338 q 31 363 31 400 z m 38 -85 l 55 144 q 56 149 60 152 q 63 156 68 156 l 170 156 q 183 156 180 143 l 132 -86 q 130 -97 119 -97 l 49 -97 q 37 -97 38 -85 z"},"J":{"x_min":0,"x_max":452,"ha":452,"o":"m 14 180 l 14 249 q 14 254 18 258 q 21 261 26 261 l 143 261 q 148 261 152 258 q 155 254 155 249 l 155 178 q 155 149 170 131 q 185 113 210 113 q 236 113 252 131 q 267 149 267 178 l 267 688 q 267 693 270 696 q 274 700 279 700 l 396 700 q 401 700 404 696 q 408 693 408 688 l 408 180 q 408 95 354 44 q 299 -8 210 -8 q 122 -8 68 44 q 14 95 14 180 z"},"V":{"x_min":0,"x_max":488,"ha":488,"o":"m 166 11 l 23 687 l 22 691 q 22 700 33 700 l 162 700 q 174 700 175 689 l 244 249 q 245 245 247 245 q 249 245 250 249 l 317 689 q 318 700 330 700 l 455 700 q 468 700 465 687 l 321 11 q 319 0 308 0 l 179 0 q 168 0 166 11 z"},"\"":{"x_min":0,"x_max":346,"ha":346,"o":"m 28 483 l 15 686 q 15 698 26 698 l 136 698 q 149 698 147 686 l 134 483 q 134 477 130 474 q 127 471 121 471 l 41 471 q 36 471 32 474 q 28 478 28 483 z m 211 483 l 198 686 q 198 698 209 698 l 319 698 q 332 698 330 686 l 317 483 q 317 477 314 474 q 310 471 304 471 l 224 471 q 219 471 215 474 q 211 478 211 483 z"},"7":{"x_min":0,"x_max":407,"ha":407,"o":"m 83 14 l 246 573 q 248 579 242 579 l 132 579 q 127 579 127 574 l 127 539 q 127 534 124 530 q 120 527 115 527 l 25 527 q 20 527 16 530 q 13 534 13 539 l 14 688 q 14 693 18 696 q 21 700 26 700 l 385 700 q 390 700 394 696 q 397 693 397 688 l 397 586 q 397 582 395 572 l 230 10 q 227 0 217 0 l 93 0 q 87 0 84 4 q 81 8 83 14 z"},"S":{"x_min":0,"x_max":444,"ha":444,"o":"m 30 175 l 30 204 q 30 209 34 212 q 37 216 42 216 l 157 216 q 162 216 166 212 q 169 209 169 204 l 169 182 q 169 151 185 132 q 201 113 225 113 q 249 113 265 131 q 281 149 281 178 q 281 208 261 230 q 241 251 183 293 q 133 329 102 357 q 71 385 49 426 q 27 467 27 521 q 27 606 80 657 q 133 708 220 708 q 308 708 362 655 q 415 602 415 516 l 415 492 q 415 487 412 484 q 408 480 403 480 l 288 480 q 283 480 280 484 q 276 487 276 492 l 276 519 q 276 550 260 568 q 245 587 220 587 q 196 587 181 570 q 166 552 166 521 q 166 491 185 468 q 204 445 260 404 q 322 358 354 330 q 385 301 402 266 q 420 232 420 184 q 420 96 366 44 q 312 -8 224 -8 q 166 -8 122 15 q 78 38 54 80 q 30 121 30 175 z"},"}":{"x_min":0,"x_max":344,"ha":344,"o":"m 40 -147 q 35 -147 32 -144 q 28 -140 28 -135 l 28 -37 q 28 -32 32 -28 q 35 -25 40 -25 l 58 -25 q 79 -25 93 -8 q 107 10 107 38 l 107 203 q 107 297 162 327 q 167 330 162 333 q 107 360 107 455 l 107 616 q 107 644 93 662 q 79 679 58 679 l 40 679 q 35 679 32 682 q 28 686 28 691 l 28 788 q 28 793 32 796 q 35 800 40 800 l 124 800 q 183 800 216 768 q 248 735 248 677 l 248 474 q 248 393 304 386 q 316 385 316 373 l 316 286 q 316 275 304 273 q 248 266 248 184 l 248 -23 q 248 -82 216 -114 q 183 -147 124 -147 z"},"Z":{"x_min":0,"x_max":412,"ha":412,"o":"m 20 12 l 20 113 q 20 121 23 128 l 237 573 q 238 576 237 578 q 236 579 233 579 l 32 579 q 27 579 24 582 q 20 586 20 591 l 20 688 q 20 693 24 696 q 27 700 32 700 l 376 700 q 381 700 384 696 q 388 693 388 688 l 388 587 q 388 580 385 572 l 171 127 q 170 124 171 122 q 172 121 175 121 l 376 121 q 381 121 384 118 q 388 114 388 109 l 388 12 q 388 7 384 4 q 381 0 376 0 l 32 0 q 27 0 24 4 q 20 7 20 12 z"},"x":{"x_min":0,"x_max":439,"ha":439,"o":"m 17 14 l 131 254 q 132 257 131 260 l 17 500 q 15 504 15 506 q 15 514 26 514 l 154 514 q 164 514 168 505 l 217 392 q 220 386 223 392 l 272 505 q 276 514 286 514 l 413 514 q 420 514 422 510 q 425 507 422 500 l 308 260 q 307 257 308 254 l 422 14 q 424 10 424 8 q 424 0 413 0 l 286 0 q 275 0 272 9 l 223 126 q 220 134 217 126 l 168 9 q 165 0 154 0 l 26 0 q 19 0 16 4 q 14 7 17 14 z"},")":{"x_min":0,"x_max":311,"ha":311,"o":"m 199 751 q 249 674 280 570 q 310 465 310 335 q 310 205 280 99 q 249 -7 199 -83 q 195 -91 185 -91 l 70 -91 q 63 -91 60 -87 q 58 -83 61 -77 q 152 120 152 335 q 152 457 126 558 q 101 658 61 745 q 59 749 59 751 q 59 759 70 759 l 185 759 q 195 759 199 751 z"},"&":{"x_min":0,"x_max":603,"ha":603,"o":"m 570 7 q 570 0 560 0 l 433 0 q 424 0 418 7 l 394 38 q 391 41 387 39 q 314 -9 222 -9 q 131 -9 79 36 q 27 81 27 168 q 27 233 56 278 q 84 323 134 361 q 138 364 135 368 q 89 430 76 460 q 62 491 62 528 q 62 610 112 659 q 163 708 246 708 q 301 708 345 685 q 389 662 414 620 q 439 579 439 525 q 439 463 408 418 q 377 374 323 336 q 318 333 322 329 l 349 294 l 380 253 l 396 233 q 400 229 403 233 q 425 262 449 307 q 454 318 465 312 l 552 263 q 562 257 557 246 q 521 179 483 129 q 480 126 483 122 l 567 15 q 570 11 570 7 z m 203 523 q 203 505 209 490 q 215 474 239 440 q 242 437 246 439 q 298 479 298 524 q 298 549 284 564 q 271 580 250 580 q 228 580 216 564 q 203 549 203 523 z m 309 137 q 313 141 310 144 l 282 180 l 220 257 q 217 261 213 258 q 169 219 169 179 q 169 150 186 130 q 204 111 237 111 q 267 111 309 137 z"},"_":{"x_min":0,"x_max":421,"ha":421,"o":"m 14 12 l 14 95 q 14 100 18 104 q 21 107 26 107 l 395 107 q 400 107 404 104 q 407 100 407 95 l 407 12 q 407 7 404 4 q 400 0 395 0 l 26 0 q 21 0 18 4 q 14 7 14 12 z"},"v":{"x_min":0,"x_max":436,"ha":436,"o":"m 137 10 l 16 502 l 16 506 q 16 515 27 515 l 156 515 q 168 515 169 504 l 215 229 q 216 226 218 226 q 220 226 221 229 l 266 504 q 267 515 279 515 l 408 513 q 422 513 419 500 l 299 10 q 296 0 285 0 l 151 0 q 140 0 137 10 z"},"O":{"x_min":0,"x_max":473,"ha":473,"o":"m 34 190 l 34 510 q 34 600 89 654 q 144 708 236 708 q 328 708 384 654 q 439 600 439 510 l 439 190 q 439 100 384 46 q 328 -8 236 -8 q 144 -8 89 46 q 34 100 34 190 z m 298 184 l 298 516 q 298 548 281 568 q 264 587 236 587 q 208 587 192 568 q 175 548 175 516 l 175 184 q 175 152 192 132 q 208 113 236 113 q 264 113 281 132 q 298 152 298 184 z"},"(":{"x_min":0,"x_max":311,"ha":311,"o":"m 112 -83 q 62 -6 32 98 q 1 202 1 332 q 1 463 32 569 q 62 675 112 751 q 116 759 126 759 l 241 759 q 248 759 250 755 q 253 751 250 745 q 159 546 159 333 q 159 120 250 -77 q 252 -81 252 -83 q 252 -91 241 -91 l 126 -91 q 116 -91 112 -83 z"},"C":{"x_min":0,"x_max":464,"ha":464,"o":"m 34 189 l 34 513 q 34 602 88 655 q 143 708 233 708 q 324 708 378 655 q 433 602 433 513 l 433 502 q 433 497 430 494 q 426 490 421 490 l 304 485 q 292 485 292 496 l 292 522 q 292 551 276 569 q 260 587 233 587 q 207 587 191 569 q 175 551 175 522 l 175 177 q 175 148 191 130 q 207 113 233 113 q 260 113 276 130 q 292 148 292 177 l 292 204 q 292 209 296 212 q 299 216 304 216 l 421 211 q 426 211 430 208 q 433 204 433 199 l 433 189 q 433 99 378 46 q 323 -8 233 -8 q 143 -8 88 46 q 34 99 34 189 z"},"W":{"x_min":0,"x_max":689,"ha":689,"o":"m 156 11 l 21 687 l 20 691 q 20 700 31 700 l 153 700 q 165 700 166 689 l 223 329 q 224 325 226 325 q 228 325 229 329 l 283 689 q 284 700 296 700 l 397 700 q 409 700 410 689 l 469 329 q 470 325 472 325 q 474 325 475 329 l 526 689 q 527 700 539 700 l 657 700 q 670 700 668 687 l 541 11 q 540 0 528 0 l 420 0 q 408 0 407 11 l 348 381 q 347 385 345 385 q 343 385 342 381 l 289 11 q 288 0 276 0 l 169 0 q 158 0 156 11 z"},"A":{"x_min":0,"x_max":482,"ha":482,"o":"m 325 11 l 309 107 q 309 112 303 112 l 176 112 q 170 112 170 107 l 154 11 q 153 0 141 0 l 24 0 q 11 0 14 13 l 161 689 q 163 700 174 700 l 309 700 q 320 700 322 689 l 468 13 l 469 9 q 469 0 458 0 l 338 0 q 326 0 325 11 z m 194 221 l 284 221 q 289 221 288 226 l 241 499 q 240 502 238 502 q 236 502 235 499 l 190 226 q 190 221 194 221 z"},"f":{"x_min":0,"x_max":298,"ha":298,"o":"m 277 502 l 277 427 q 277 422 274 418 q 270 415 265 415 l 210 415 q 205 415 205 410 l 205 12 q 205 7 202 4 q 198 0 193 0 l 77 0 q 72 0 68 4 q 65 7 65 12 l 65 410 q 65 415 60 415 l 30 415 q 25 415 22 418 q 18 422 18 427 l 18 502 q 18 507 22 510 q 25 514 30 514 l 60 514 q 65 514 65 519 l 65 546 q 65 636 110 670 q 156 705 255 703 l 259 703 q 264 703 268 700 q 271 696 271 691 l 270 611 q 270 606 266 602 q 263 599 258 599 l 256 599 q 205 598 205 537 l 205 519 q 205 514 210 514 l 265 514 q 270 514 274 510 q 277 507 277 502 z"},"Q":{"x_min":0,"x_max":461,"ha":461,"o":"m 427 503 l 427 197 q 427 127 394 76 q 362 25 305 4 q 301 3 301 -1 l 301 -86 q 301 -91 298 -94 q 294 -98 289 -98 l 172 -98 q 167 -98 164 -94 q 160 -91 160 -86 l 160 -1 q 160 3 156 4 q 99 25 66 76 q 34 127 34 197 l 34 503 q 34 564 58 610 q 83 657 128 682 q 172 708 230 708 q 319 708 373 652 q 427 595 427 503 z m 175 182 q 175 151 190 132 q 205 113 230 113 q 255 113 270 132 q 286 151 286 182 l 286 518 q 286 549 270 568 q 255 587 230 587 q 205 587 190 568 q 175 549 175 518 z"},"w":{"x_min":0,"x_max":613,"ha":613,"o":"m 124 11 l 16 502 l 16 506 q 16 515 27 515 l 138 515 q 150 515 151 504 l 194 230 q 195 227 197 227 q 199 227 200 230 l 244 504 q 245 515 257 515 l 356 515 q 368 515 369 504 l 416 229 q 417 226 419 226 q 421 227 422 230 l 464 504 q 465 515 477 515 l 587 513 q 600 513 597 500 l 490 11 q 488 0 477 0 l 363 0 q 351 0 350 11 l 307 265 q 306 268 304 268 q 302 268 301 265 l 260 11 q 259 0 247 0 l 137 0 q 126 0 124 11 z"},"-":{"x_min":0,"x_max":331,"ha":331,"o":"m 24 247 l 24 344 q 24 349 28 352 q 31 356 36 356 l 295 356 q 300 356 304 352 q 307 349 307 344 l 307 247 q 307 242 304 238 q 300 235 295 235 l 36 235 q 31 235 28 238 q 24 242 24 247 z"},"E":{"x_min":0,"x_max":438,"ha":438,"o":"m 399 579 l 190 579 q 185 579 185 574 l 185 416 q 185 411 190 411 l 310 411 q 315 411 318 408 q 322 404 322 399 l 322 302 q 322 297 318 294 q 315 290 310 290 l 190 290 q 185 290 185 285 l 185 126 q 185 121 190 121 l 399 121 q 404 121 408 118 q 411 114 411 109 l 411 12 q 411 7 408 4 q 404 0 399 0 l 56 0 q 51 0 48 4 q 44 7 44 12 l 44 688 q 44 693 48 696 q 51 700 56 700 l 399 700 q 404 700 408 696 q 411 693 411 688 l 411 591 q 411 586 408 582 q 404 579 399 579 z"},"s":{"x_min":0,"x_max":412,"ha":412,"o":"m 24 142 l 24 149 q 24 154 28 158 q 31 161 36 161 l 146 161 q 151 161 154 158 q 158 154 158 149 l 158 146 q 158 125 173 112 q 188 98 210 98 q 230 98 242 110 q 253 121 253 139 q 253 161 234 174 q 215 186 192 194 q 168 203 159 206 q 104 226 66 262 q 29 297 29 364 q 29 437 77 479 q 125 521 205 521 q 288 521 336 477 q 385 433 385 358 q 385 353 382 350 q 378 346 373 346 l 266 346 q 261 346 258 350 q 254 353 254 358 l 254 366 q 254 386 242 398 q 229 411 209 411 q 188 411 176 398 q 164 384 164 366 q 164 342 184 328 q 205 315 247 299 q 290 283 320 266 q 351 250 373 220 q 395 189 395 143 q 395 74 344 34 q 294 -7 210 -7 q 125 -7 74 34 q 24 74 24 142 z"},">":{"x_min":0,"x_max":438,"ha":438,"o":"m 33 53 q 24 53 24 64 l 24 173 q 24 183 33 187 l 273 286 q 279 289 273 292 l 33 390 q 24 395 24 404 l 24 513 q 24 520 28 523 q 32 526 38 523 l 406 353 q 415 349 415 339 l 415 238 q 415 229 406 224 l 38 54 q 36 53 33 53 z"},"l":{"x_min":0,"x_max":209,"ha":209,"o":"m 34 12 l 34 688 q 34 693 38 696 q 41 700 46 700 l 163 700 q 168 700 172 696 q 175 693 175 688 l 175 12 q 175 7 172 4 q 168 0 163 0 l 46 0 q 41 0 38 4 q 34 7 34 12 z"},"8":{"x_min":0,"x_max":440,"ha":440,"o":"m 341 362 q 374 341 390 303 q 410 260 410 202 q 410 156 394 110 q 373 55 327 24 q 281 -8 220 -8 q 159 -8 113 23 q 67 54 46 110 q 30 151 30 202 q 30 258 48 300 q 62 338 99 361 q 105 364 99 367 q 64 391 49 427 q 30 471 30 520 q 30 574 49 613 q 70 660 116 686 q 161 713 220 713 q 278 713 323 688 q 368 662 390 614 q 410 572 410 520 q 410 471 391 428 q 376 392 340 369 q 336 365 341 362 z m 169 507 q 169 484 176 461 q 180 441 192 429 q 203 417 220 417 q 237 417 249 430 q 261 442 265 462 q 271 482 271 506 q 271 532 264 550 q 259 569 248 580 q 236 592 220 592 q 203 592 192 580 q 180 569 175 548 q 169 530 169 507 z m 271 211 q 271 241 265 263 q 260 285 248 298 q 237 310 220 310 q 202 310 190 297 q 178 284 174 261 q 169 238 169 213 q 169 185 173 165 q 177 141 189 127 q 201 113 220 113 q 239 113 252 128 q 264 142 267 167 q 271 193 271 211 z"},"\\":{"x_min":0,"x_max":415,"ha":415,"o":"m 399 9 q 399 0 388 0 l 271 0 q 261 0 258 10 l 38 686 q 37 688 37 691 q 37 700 48 700 l 165 700 q 175 700 178 690 l 398 14 q 399 12 399 9 z"},"e":{"x_min":0,"x_max":436,"ha":436,"o":"m 397 213 l 177 213 q 172 213 172 208 l 172 171 q 172 146 186 130 q 199 113 220 113 q 239 113 251 126 q 263 138 267 157 q 270 167 280 167 l 395 161 q 400 161 404 158 q 407 154 406 148 q 399 71 352 32 q 306 -8 220 -8 q 131 -8 81 36 q 31 81 31 160 l 31 354 q 31 430 82 476 q 132 522 220 522 q 308 522 358 476 q 409 430 409 354 l 409 225 q 409 220 406 216 q 402 213 397 213 z m 172 344 l 172 305 q 172 300 177 300 l 263 300 q 268 300 268 305 l 268 344 q 268 369 254 385 q 241 401 220 401 q 199 401 186 385 q 172 369 172 344 z"},"b":{"x_min":0,"x_max":445,"ha":445,"o":"m 414 354 l 414 160 q 414 81 379 36 q 344 -8 275 -8 q 219 -8 185 30 q 183 32 181 32 q 179 31 179 28 l 179 12 q 179 7 176 4 q 172 0 167 0 l 50 0 q 45 0 42 4 q 38 7 38 12 l 38 688 q 38 693 42 696 q 45 700 50 700 l 167 700 q 172 700 176 696 q 179 693 179 688 l 179 485 q 179 483 181 483 q 185 483 189 488 q 223 522 275 522 q 343 522 378 478 q 414 435 414 354 z m 226 401 q 208 401 195 389 q 182 377 179 357 l 179 157 q 182 137 195 125 q 208 113 226 113 q 247 113 260 129 q 273 145 273 170 l 273 344 q 273 369 260 385 q 247 401 226 401 z"},"%":{"x_min":0,"x_max":766,"ha":766,"o":"m 44 551 q 44 594 65 630 q 86 666 122 688 q 158 709 200 709 q 242 709 278 688 q 313 666 334 630 q 354 594 354 551 q 354 508 334 472 q 313 435 278 414 q 242 393 200 393 q 158 393 122 414 q 86 435 65 472 q 44 508 44 551 z m 150 14 l 514 692 q 518 700 529 700 l 604 700 q 611 700 613 696 q 615 692 612 686 l 248 8 q 244 0 233 0 l 158 0 q 151 0 149 4 q 147 8 150 14 z m 279 551 q 279 586 256 610 q 233 635 200 635 q 166 635 142 610 q 119 586 119 551 q 119 515 142 490 q 166 466 200 466 q 234 466 256 491 q 279 516 279 551 z m 412 150 q 412 193 433 229 q 454 265 490 286 q 525 307 567 307 q 609 307 644 286 q 680 265 701 229 q 722 193 722 150 q 722 107 701 70 q 680 34 644 12 q 609 -9 567 -9 q 525 -9 490 12 q 454 34 433 70 q 412 107 412 150 z m 647 150 q 647 185 624 210 q 600 234 567 234 q 533 234 510 210 q 487 185 487 150 q 487 114 510 90 q 533 65 567 65 q 601 65 624 90 q 647 115 647 150 z"},"m":{"x_min":0,"x_max":675,"ha":675,"o":"m 641 347 l 641 12 q 641 7 638 4 q 634 0 629 0 l 512 0 q 507 0 504 4 q 500 7 500 12 l 500 338 q 500 368 488 384 q 476 401 456 401 q 434 401 422 384 q 409 368 409 338 l 409 12 q 409 7 406 4 q 402 0 397 0 l 281 0 q 276 0 272 4 q 269 7 269 12 l 269 338 q 269 368 257 384 q 245 401 225 401 q 203 401 190 384 q 178 368 178 338 l 178 12 q 178 7 174 4 q 171 0 166 0 l 49 0 q 44 0 40 4 q 37 7 37 12 l 37 502 q 37 507 40 510 q 44 514 49 514 l 166 514 q 171 514 174 510 q 178 507 178 502 l 178 489 q 178 486 180 485 q 182 484 184 486 q 204 506 228 514 q 252 522 274 522 q 352 522 386 460 l 388 459 q 391 459 395 465 q 416 497 446 510 q 475 522 505 522 q 573 522 607 476 q 641 430 641 347 z"},"#":{"x_min":0,"x_max":616,"ha":616,"o":"m 570 404 l 509 404 q 503 404 503 399 l 489 300 q 489 295 493 295 l 535 295 q 540 295 544 292 q 547 288 547 283 l 547 187 q 547 182 544 178 q 540 175 535 175 l 475 175 q 469 175 469 170 l 450 38 q 449 27 437 27 l 320 27 q 308 27 309 40 l 328 170 q 328 175 324 175 l 241 175 q 235 175 235 170 l 216 38 q 215 27 203 27 l 86 27 q 74 27 75 40 l 94 170 q 94 175 90 175 l 46 175 q 41 175 38 178 q 34 182 34 187 l 34 283 q 34 288 38 292 q 41 295 46 295 l 108 295 q 114 295 114 300 l 128 399 q 128 404 124 404 l 81 404 q 76 404 72 408 q 69 411 69 416 l 69 513 q 69 518 72 522 q 76 525 81 525 l 142 525 q 148 525 148 530 l 167 662 q 168 673 180 673 l 297 673 q 309 673 308 660 l 289 530 q 289 525 293 525 l 376 525 q 382 525 382 530 l 401 662 q 402 673 414 673 l 531 673 q 543 673 542 660 l 523 530 q 523 525 527 525 l 570 525 q 575 525 578 522 q 582 518 582 513 l 582 416 q 582 411 578 408 q 575 404 570 404 z m 348 300 l 362 399 q 362 404 358 404 l 275 404 q 269 404 269 399 l 255 300 q 255 295 259 295 l 342 295 q 348 295 348 300 z"},",":{"x_min":0,"x_max":211,"ha":211,"o":"m 30 -85 l 52 147 q 54 158 64 158 l 166 158 q 180 158 177 145 l 124 -87 q 121 -98 111 -98 l 42 -98 q 36 -98 32 -94 q 29 -91 30 -85 z"},"n":{"x_min":0,"x_max":447,"ha":447,"o":"m 413 351 l 413 12 q 413 7 410 4 q 406 0 401 0 l 284 0 q 279 0 276 4 q 272 7 272 12 l 272 340 q 272 369 260 385 q 249 401 227 401 q 204 401 192 384 q 179 368 179 338 l 179 12 q 179 7 176 4 q 172 0 167 0 l 50 0 q 45 0 42 4 q 38 7 38 12 l 38 502 q 38 507 42 510 q 45 514 50 514 l 167 514 q 172 514 176 510 q 179 507 179 502 l 179 483 q 179 480 182 480 q 184 480 188 484 q 220 522 277 522 q 345 522 379 477 q 413 432 413 351 z"},"h":{"x_min":0,"x_max":447,"ha":447,"o":"m 413 351 l 413 12 q 413 7 410 4 q 406 0 401 0 l 284 0 q 279 0 276 4 q 272 7 272 12 l 272 340 q 272 369 260 385 q 249 401 227 401 q 204 401 192 384 q 179 368 179 338 l 179 12 q 179 7 176 4 q 172 0 167 0 l 50 0 q 45 0 42 4 q 38 7 38 12 l 38 688 q 38 693 42 696 q 45 700 50 700 l 167 700 q 172 700 176 696 q 179 693 179 688 l 179 483 q 179 480 182 480 q 184 480 188 484 q 220 522 277 522 q 345 522 379 477 q 413 432 413 351 z"},"z":{"x_min":0,"x_max":373,"ha":373,"o":"m 18 12 l 18 120 q 18 128 22 135 l 178 381 q 181 387 175 387 l 36 387 q 31 387 28 390 q 24 394 24 399 l 24 502 q 24 507 28 510 q 31 514 36 514 l 337 514 q 342 514 346 510 q 349 507 349 502 l 349 395 q 349 387 345 380 l 183 134 q 180 128 186 128 l 343 128 q 348 128 352 124 q 355 121 355 116 l 355 12 q 355 7 352 4 q 348 0 343 0 l 30 0 q 25 0 22 4 q 18 7 18 12 z"},"B":{"x_min":0,"x_max":470,"ha":470,"o":"m 245 0 l 56 0 q 51 0 48 4 q 44 7 44 12 l 44 688 q 44 693 48 696 q 51 700 56 700 l 223 700 q 323 700 380 652 q 436 604 436 509 q 436 410 368 365 q 364 362 367 359 q 446 303 446 193 q 446 100 390 50 q 334 0 245 0 z m 185 574 l 185 417 q 185 412 190 412 l 226 412 q 260 412 279 434 q 298 455 298 494 q 298 535 280 557 q 261 579 226 579 l 190 579 q 185 579 185 574 z m 305 214 q 305 258 286 284 q 267 310 235 310 l 190 310 q 185 310 185 305 l 185 127 q 185 122 190 122 l 234 122 q 267 122 286 146 q 305 170 305 214 z"},"K":{"x_min":0,"x_max":491,"ha":491,"o":"m 44 12 l 44 688 q 44 693 48 696 q 51 700 56 700 l 173 700 q 178 700 182 696 q 185 693 185 688 l 185 436 q 185 432 188 432 q 190 431 191 435 l 320 691 q 325 700 334 700 l 458 700 q 465 700 468 696 q 470 693 467 686 l 319 398 q 318 394 318 392 l 475 14 q 476 12 476 8 q 476 0 466 0 l 341 0 q 330 0 327 9 l 223 271 q 222 274 220 274 q 218 273 216 271 l 187 219 q 185 215 185 213 l 185 12 q 185 7 182 4 q 178 0 173 0 l 56 0 q 51 0 48 4 q 44 7 44 12 z"},"R":{"x_min":0,"x_max":471,"ha":471,"o":"m 306 10 l 229 286 q 227 290 224 290 l 190 290 q 185 290 185 285 l 185 12 q 185 7 182 4 q 178 0 173 0 l 56 0 q 51 0 48 4 q 44 7 44 12 l 44 688 q 44 693 48 696 q 51 700 56 700 l 258 700 q 313 700 356 674 q 399 647 422 599 q 446 551 446 489 q 446 430 424 385 q 401 340 361 315 q 359 314 358 312 q 357 311 358 309 l 450 14 l 451 10 q 451 0 440 0 l 320 0 q 309 0 306 10 z m 185 574 l 185 403 q 185 398 190 398 l 235 398 q 266 398 286 422 q 305 447 305 488 q 305 530 286 554 q 266 579 235 579 l 190 579 q 185 579 185 574 z"},"T":{"x_min":0,"x_max":468,"ha":468,"o":"m 444 688 l 444 591 q 444 586 440 582 q 437 579 432 579 l 307 579 q 302 579 302 574 l 302 12 q 302 7 298 4 q 295 0 290 0 l 173 0 q 168 0 164 4 q 161 7 161 12 l 161 574 q 161 579 156 579 l 36 579 q 31 579 28 582 q 24 586 24 591 l 24 688 q 24 693 28 696 q 31 700 36 700 l 432 700 q 437 700 440 696 q 444 693 444 688 z"},"P":{"x_min":0,"x_max":465,"ha":465,"o":"m 445 488 q 445 395 395 339 q 345 283 264 283 l 189 283 q 184 283 184 278 l 184 12 q 184 7 180 4 q 177 0 172 0 l 55 0 q 50 0 46 4 q 43 7 43 12 l 43 689 q 43 694 46 698 q 50 701 55 701 l 257 701 q 312 701 355 674 q 398 647 422 598 q 445 550 445 488 z m 304 485 q 304 529 284 554 q 265 579 233 579 l 189 579 q 184 579 184 574 l 184 398 q 184 393 189 393 l 233 393 q 265 393 284 418 q 304 442 304 485 z"},"|":{"x_min":0,"x_max":186,"ha":186,"o":"m 22 -68 l 22 748 q 22 753 26 756 q 29 760 34 760 l 151 760 q 156 760 160 756 q 163 753 163 748 l 163 -68 q 163 -73 160 -76 q 156 -80 151 -80 l 34 -80 q 29 -80 26 -76 q 22 -73 22 -68 z"},"t":{"x_min":0,"x_max":291,"ha":291,"o":"m 260 415 l 204 415 q 199 415 199 410 l 199 172 q 199 143 210 132 q 221 121 243 122 l 250 122 q 255 122 258 118 q 262 115 262 110 l 262 12 q 262 7 258 4 q 255 0 250 0 l 210 0 q 137 0 100 24 q 63 49 63 118 l 63 410 q 63 415 58 415 l 25 415 q 20 415 16 418 q 13 422 13 427 l 13 502 q 13 507 16 510 q 20 514 25 514 l 58 514 q 63 514 63 519 l 63 630 q 63 635 66 638 q 70 642 75 642 l 187 642 q 192 642 196 638 q 199 635 199 630 l 199 519 q 199 514 204 514 l 260 514 q 265 514 268 510 q 272 507 272 502 l 272 427 q 272 422 268 418 q 265 415 260 415 z"},"M":{"x_min":0,"x_max":548,"ha":548,"o":"m 379 700 l 495 700 q 500 700 504 696 q 507 693 507 688 l 507 12 q 507 7 504 4 q 500 0 495 0 l 378 0 q 373 0 370 4 q 366 7 366 12 l 366 461 q 366 465 364 465 q 362 465 360 462 l 282 324 q 277 316 274 316 q 271 316 266 324 l 188 462 q 186 465 184 465 q 182 465 182 461 l 182 12 q 182 7 178 4 q 175 0 170 0 l 53 0 q 48 0 44 4 q 41 7 41 12 l 41 688 q 41 693 44 696 q 48 700 53 700 l 168 700 q 178 700 183 692 l 272 533 q 275 529 278 533 l 364 692 q 368 700 379 700 z"},"g":{"x_min":0,"x_max":441,"ha":441,"o":"m 279 514 l 396 514 q 401 514 404 510 q 408 507 408 502 l 408 24 q 408 -87 356 -147 q 303 -207 167 -207 q 140 -207 125 -206 q 113 -205 113 -193 l 113 -95 q 113 -82 126 -84 q 185 -86 216 -72 q 246 -59 256 -32 q 267 -5 267 39 q 267 42 265 42 q 263 42 261 39 q 243 15 218 6 q 192 -4 168 -4 q 99 -4 65 40 q 31 85 31 164 l 31 354 q 31 435 66 478 q 100 522 168 522 q 229 522 261 477 q 263 474 265 475 q 267 476 267 479 l 267 502 q 267 507 270 510 q 274 514 279 514 z m 267 175 l 267 344 q 267 369 254 385 q 240 401 219 401 q 198 401 185 385 q 172 369 172 344 l 172 175 q 172 150 185 134 q 198 118 219 118 q 240 118 254 134 q 267 150 267 175 z"},"j":{"x_min":0,"x_max":217,"ha":217,"o":"m 29 651 q 29 686 51 708 q 73 730 108 730 q 143 730 165 708 q 187 686 187 651 q 187 617 164 594 q 142 572 108 572 q 74 572 52 594 q 29 617 29 651 z m -56 -192 l -56 -95 q -56 -83 -43 -84 q 2 -85 20 -64 q 38 -42 38 0 l 38 502 q 38 507 42 510 q 45 514 50 514 l 167 514 q 172 514 176 510 q 179 507 179 502 l 179 0 q 179 -75 166 -117 q 152 -159 104 -182 q 56 -205 -44 -204 q -56 -204 -56 -192 z"},"i":{"x_min":0,"x_max":219,"ha":219,"o":"m 30 651 q 30 686 52 708 q 74 730 109 730 q 144 730 166 708 q 187 686 187 651 q 187 617 165 594 q 143 572 109 572 q 75 572 52 594 q 30 617 30 651 z m 40 12 l 40 502 q 40 507 44 510 q 47 514 52 514 l 169 514 q 174 514 178 510 q 181 507 181 502 l 181 12 q 181 7 178 4 q 174 0 169 0 l 52 0 q 47 0 44 4 q 40 7 40 12 z"},"y":{"x_min":0,"x_max":423,"ha":423,"o":"m 32 -187 l 32 -95 q 32 -83 41 -83 q 93 -82 115 -66 q 137 -51 140 -3 l 139 3 l 13 502 l 13 506 q 13 515 24 515 l 150 515 q 162 515 163 504 l 209 207 q 210 203 212 203 q 214 203 215 207 l 259 504 q 260 515 272 515 l 398 513 q 412 513 409 500 l 277 -19 q 257 -92 234 -128 q 212 -165 168 -182 q 125 -199 43 -199 l 38 -199 q 36 -199 34 -196 q 32 -192 32 -187 z"},"@":{"x_min":0,"x_max":759,"ha":759,"o":"m 729 362 q 729 338 726 312 q 713 213 660 158 q 607 102 529 102 q 462 102 426 143 q 422 146 419 142 q 404 120 382 112 q 359 103 338 103 q 284 103 256 135 q 227 167 227 212 q 227 233 232 266 l 235 292 q 238 326 243 352 q 253 413 282 442 q 310 470 361 470 q 373 470 388 465 q 403 460 414 448 q 421 443 421 450 l 421 453 q 422 464 434 464 l 505 464 q 517 464 516 451 l 493 276 q 492 269 492 257 q 492 226 506 210 q 521 193 543 193 q 576 193 597 227 q 618 261 625 315 q 628 336 628 355 q 628 419 601 467 q 574 515 526 541 q 477 567 415 567 q 345 567 284 530 q 223 494 182 430 q 142 365 132 283 q 129 259 129 238 q 129 167 158 116 q 188 66 234 41 q 281 16 333 16 q 400 16 458 56 q 463 59 465 59 q 471 59 474 53 l 507 -2 q 509 -4 509 -9 q 509 -15 504 -19 q 421 -74 317 -74 q 237 -74 172 -37 q 106 0 68 69 q 31 138 31 230 q 31 260 35 287 q 48 393 104 477 q 159 561 244 608 q 329 655 425 655 q 513 655 582 618 q 652 582 690 516 q 729 449 729 362 z m 392 222 l 400 286 q 403 320 408 347 q 410 365 402 376 q 394 388 378 388 q 362 388 350 376 q 339 365 337 347 q 330 294 329 283 l 321 222 q 319 203 328 192 q 336 181 352 181 q 368 181 378 192 q 389 203 392 222 z"},".":{"x_min":0,"x_max":223,"ha":223,"o":""},"p":{"x_min":0,"x_max":448,"ha":448,"o":"m 418 355 l 418 160 q 418 79 382 36 q 346 -8 278 -8 q 256 -8 232 0 q 208 9 188 31 q 186 34 184 33 q 182 32 182 29 l 182 -174 q 182 -179 178 -182 q 175 -186 170 -186 l 53 -186 q 48 -186 44 -182 q 41 -179 41 -174 l 41 502 q 41 507 44 510 q 48 514 53 514 l 170 514 q 175 514 178 510 q 182 507 182 502 l 182 486 q 182 484 184 484 q 188 484 192 489 q 226 522 278 522 q 347 522 382 478 q 418 433 418 355 z m 229 402 q 208 402 195 386 q 182 370 182 344 l 182 171 q 182 145 195 129 q 208 113 229 113 q 251 113 264 129 q 277 145 277 171 l 277 344 q 277 370 264 386 q 251 402 229 402 z"},"X":{"x_min":0,"x_max":475,"ha":475,"o":"m 26 14 l 162 347 q 163 350 162 353 l 26 686 q 25 688 25 692 q 25 700 35 700 l 155 700 q 165 700 168 690 l 235 498 q 236 495 238 495 q 240 495 241 498 l 308 690 q 311 700 321 700 l 440 700 q 447 700 449 696 q 451 692 449 686 l 313 353 q 312 350 313 347 l 449 14 q 450 12 450 8 q 450 0 440 0 l 321 0 q 311 0 308 10 l 241 201 q 240 204 238 204 q 236 204 235 201 l 167 10 q 164 0 154 0 l 35 0 q 28 0 26 4 q 24 8 26 14 z"},"*":{"x_min":0,"x_max":361,"ha":361,"o":"m 141 408 l 142 491 q 142 494 140 495 q 138 496 136 494 l 64 452 q 60 450 58 450 q 53 450 48 457 l 20 507 q 18 511 18 513 q 18 519 24 523 l 101 567 q 103 569 103 571 q 103 573 101 574 l 24 617 q 14 624 20 633 l 48 686 q 51 691 56 692 q 60 694 65 691 l 136 647 q 138 645 140 646 q 142 647 142 650 l 141 734 q 141 739 144 742 q 148 746 153 746 l 209 746 q 214 746 218 742 q 221 739 221 734 l 220 650 q 220 647 222 646 q 224 645 226 647 l 297 691 q 301 693 303 693 q 310 693 314 686 l 342 633 q 344 629 344 627 q 344 622 338 617 l 262 574 q 260 573 260 571 q 260 569 262 567 l 338 523 q 347 517 342 507 l 314 454 q 311 449 306 448 q 302 447 297 450 l 226 494 q 224 496 222 495 q 220 494 220 491 l 221 408 q 221 403 218 400 q 214 396 209 396 l 153 396 q 148 396 144 400 q 141 403 141 408 z"},"Y":{"x_min":0,"x_max":474,"ha":474,"o":"m 166 13 l 166 273 l 165 279 l 25 686 q 24 688 24 691 q 24 700 35 700 l 158 700 q 169 700 172 690 l 234 451 q 235 448 237 448 q 239 448 240 451 l 302 690 q 305 700 316 700 l 439 700 q 445 700 448 696 q 451 693 449 686 l 308 279 l 307 273 l 307 13 q 307 8 304 4 q 300 1 295 1 l 178 1 q 173 1 170 4 q 166 8 166 13 z"},"c":{"x_min":0,"x_max":434,"ha":434,"o":"m 31 160 l 31 354 q 31 430 82 476 q 132 522 220 522 q 308 522 358 477 q 409 432 409 360 l 409 342 q 409 337 406 334 q 402 330 397 330 l 280 325 q 268 325 268 337 l 268 349 q 268 371 254 386 q 241 401 220 401 q 198 401 185 385 q 172 369 172 343 l 172 171 q 172 145 185 129 q 198 113 220 113 q 241 113 254 128 q 268 144 268 165 l 268 178 q 268 183 272 186 q 275 190 280 190 l 397 189 q 402 189 406 186 q 409 182 409 177 l 409 154 q 409 80 358 36 q 308 -8 220 -8 q 132 -8 82 37 q 31 82 31 160 z"},"!":{"x_min":0,"x_max":279,"ha":279,"o":"m 83 252 l 68 688 q 68 693 72 696 q 75 700 80 700 l 197 700 q 202 700 206 696 q 209 693 209 688 l 195 252 q 195 247 192 244 q 188 240 183 240 l 95 240 q 90 240 86 244 q 83 247 83 252 z m 61 80 q 61 115 83 137 q 105 159 140 159 q 175 159 196 137 q 218 115 218 80 q 218 46 196 24 q 174 1 140 1 q 106 1 84 24 q 61 46 61 80 z"},"/":{"x_min":0,"x_max":415,"ha":415,"o":"m 18 14 l 237 690 q 240 700 250 700 l 367 700 q 373 700 376 696 q 379 693 377 686 l 158 10 q 155 0 145 0 l 28 0 q 22 0 19 4 q 16 7 18 14 z"},"[":{"x_min":0,"x_max":345,"ha":345,"o":"m 28 -135 l 28 788 q 28 793 32 796 q 35 800 40 800 l 244 800 q 249 800 252 796 q 256 793 256 788 l 256 691 q 256 686 252 682 q 249 679 244 679 l 174 679 q 169 679 169 674 l 169 -20 q 169 -25 174 -25 l 244 -25 q 249 -25 252 -28 q 256 -32 256 -37 l 256 -135 q 256 -140 252 -144 q 249 -147 244 -147 l 40 -147 q 35 -147 32 -144 q 28 -140 28 -135 z"},"6":{"x_min":0,"x_max":440,"ha":440,"o":"m 417 218 q 417 196 415 158 q 412 79 361 36 q 310 -8 225 -8 q 145 -8 96 32 q 46 72 37 151 q 33 172 33 206 l 31 529 q 31 611 84 660 q 136 708 223 708 q 304 708 356 659 q 407 610 407 529 l 407 499 q 407 494 404 490 q 400 487 395 487 l 278 487 q 273 487 270 490 q 266 494 266 499 l 266 521 q 266 548 253 566 q 240 584 223 584 q 201 584 187 566 q 173 549 173 521 l 173 420 q 173 417 175 416 q 177 416 179 418 q 212 446 254 446 q 324 446 366 400 q 409 354 413 277 q 417 253 417 218 z m 274 228 q 274 255 270 290 q 267 313 255 326 q 243 339 224 339 q 204 339 192 326 q 179 312 176 288 q 173 249 173 228 q 173 204 176 166 q 179 140 192 126 q 204 112 224 112 q 244 112 256 127 q 269 142 272 169 q 274 217 274 228 z"},"r":{"x_min":0,"x_max":324,"ha":324,"o":"m 310 510 q 318 505 316 495 l 297 378 q 296 367 283 370 q 272 374 256 374 q 241 374 230 370 q 207 366 193 342 q 179 319 179 288 l 179 13 q 179 8 176 4 q 172 1 167 1 l 50 1 q 45 1 42 4 q 38 8 38 13 l 38 502 q 38 507 42 510 q 45 514 50 514 l 167 514 q 172 514 176 510 q 179 507 179 502 l 179 463 q 179 459 180 458 q 182 458 184 461 q 211 520 268 520 q 295 520 310 510 z"},"2":{"x_min":0,"x_max":438,"ha":438,"o":"m 200 121 l 409 121 q 414 121 418 118 q 421 114 421 109 l 421 12 q 421 7 418 4 q 414 0 409 0 l 39 0 q 34 0 30 4 q 27 7 27 12 l 27 113 q 27 122 32 128 q 72 181 88 200 q 176 313 213 371 q 267 457 267 516 q 267 550 254 568 q 240 587 217 587 q 194 587 180 568 q 166 550 167 521 l 167 480 q 167 475 164 472 q 160 468 155 468 l 36 468 q 31 468 28 472 q 24 475 24 480 l 24 527 q 28 609 83 658 q 138 708 223 708 q 307 708 358 655 q 410 602 410 515 q 410 463 394 416 q 377 369 340 315 q 312 274 244 187 l 197 127 q 195 125 196 123 q 197 121 200 121 z"},"{":{"x_min":0,"x_max":344,"ha":344,"o":"m 97 -23 l 97 184 q 97 266 40 273 q 28 275 28 286 l 28 373 q 28 385 40 386 q 97 394 97 474 l 97 677 q 97 736 130 768 q 162 800 221 800 l 304 800 q 309 800 312 796 q 316 793 316 788 l 316 691 q 316 686 312 682 q 309 679 304 679 l 286 679 q 265 679 252 662 q 238 644 238 616 l 238 455 q 238 360 182 333 q 177 330 182 327 q 238 297 238 203 l 238 38 q 238 10 252 -8 q 265 -25 286 -25 l 304 -25 q 309 -25 312 -28 q 316 -32 316 -37 l 316 -135 q 316 -140 312 -144 q 309 -147 304 -147 l 221 -147 q 162 -147 130 -114 q 97 -82 97 -23 z"},"9":{"x_min":0,"x_max":435,"ha":435,"o":"m 212 -8 q 130 -8 79 40 q 28 89 28 171 l 28 201 q 28 206 32 210 q 35 213 40 213 l 157 213 q 162 213 166 210 q 169 206 169 201 l 169 179 q 169 152 182 134 q 194 116 212 116 q 234 116 248 134 q 261 151 261 179 l 261 279 q 261 282 259 282 q 257 283 255 281 q 223 254 181 254 q 111 254 68 300 q 26 346 21 423 q 18 450 18 482 q 18 504 20 542 q 23 621 74 664 q 125 708 210 708 q 290 708 340 668 q 389 628 398 549 q 402 517 402 494 l 403 171 q 404 89 352 40 q 299 -8 212 -8 z m 261 472 q 261 509 259 534 q 256 560 244 574 q 231 588 211 588 q 191 588 178 573 q 166 558 163 531 q 161 507 161 472 q 161 449 164 410 q 168 387 180 374 q 192 361 211 361 q 230 361 242 374 q 255 388 259 412 q 261 438 261 472 z"}," ":{"x_min":0,"x_max":200,"ha":200,"o":""},"I":{"x_min":0,"x_max":230,"ha":230,"o":"m 44 12 l 44 688 q 44 693 48 696 q 51 700 56 700 l 173 700 q 178 700 182 696 q 185 693 185 688 l 185 12 q 185 7 182 4 q 178 0 173 0 l 56 0 q 51 0 48 4 q 44 7 44 12 z"},"H":{"x_min":0,"x_max":480,"ha":480,"o":"m 307 700 l 424 700 q 429 700 432 696 q 436 693 436 688 l 436 12 q 436 7 432 4 q 429 0 424 0 l 307 0 q 302 0 298 4 q 295 7 295 12 l 295 285 q 295 290 290 290 l 190 290 q 185 290 185 285 l 185 12 q 185 7 182 4 q 178 0 173 0 l 56 0 q 51 0 48 4 q 44 7 44 12 l 44 688 q 44 693 48 696 q 51 700 56 700 l 173 700 q 178 700 182 696 q 185 693 185 688 l 185 416 q 185 411 190 411 l 290 411 q 295 411 295 416 l 295 688 q 295 693 298 696 q 302 700 307 700 z"},"4":{"x_min":0,"x_max":484,"ha":484,"o":"m 470 292 l 470 189 q 470 184 466 180 q 463 177 458 177 l 427 177 q 422 177 422 172 l 422 12 q 422 7 418 4 q 415 0 410 0 l 293 0 q 288 0 284 4 q 281 7 281 12 l 281 172 q 281 177 276 177 l 26 177 q 21 177 18 180 q 14 184 14 189 l 14 271 q 14 280 16 286 l 149 690 q 152 700 162 700 l 289 700 q 295 700 298 696 q 301 693 299 686 l 179 310 q 178 304 183 304 l 276 304 q 281 304 281 309 l 281 413 q 281 418 284 422 q 288 425 293 425 l 410 425 q 415 425 418 422 q 422 418 422 413 l 422 309 q 422 304 427 304 l 458 304 q 463 304 466 300 q 470 297 470 292 z"},"~":{"x_min":0,"x_max":490,"ha":490,"o":"m 246 229 q 239 233 225 242 q 211 251 199 256 q 187 260 176 260 q 157 260 140 250 q 124 240 112 223 q 105 213 96 219 l 33 257 q 24 263 27 273 q 43 320 80 350 q 118 381 163 381 q 185 381 204 374 q 222 368 242 356 q 271 338 286 331 q 300 324 318 324 q 348 324 372 359 q 379 369 389 363 l 456 322 q 466 316 461 305 q 437 260 403 231 q 369 202 328 202 q 306 202 289 208 q 272 215 246 229 z"},"D":{"x_min":0,"x_max":476,"ha":476,"o":"m 44 12 l 44 688 q 44 693 48 696 q 51 700 56 700 l 237 700 q 328 700 383 647 q 438 594 438 506 l 438 194 q 438 106 383 53 q 328 0 237 0 l 56 0 q 51 0 48 4 q 44 7 44 12 z m 190 121 l 235 122 q 262 123 279 145 q 296 167 297 203 l 297 497 q 297 535 280 557 q 263 579 234 579 l 190 579 q 185 579 185 574 l 185 126 q 185 121 190 121 z"},"^":{"x_min":0,"x_max":422,"ha":422,"o":"m 28 312 l 148 690 q 151 700 161 700 l 259 700 q 269 700 272 690 l 395 312 q 396 310 396 307 q 396 298 385 298 l 291 298 q 280 298 277 308 l 214 538 q 213 541 211 541 q 209 541 208 538 l 145 308 q 142 298 131 298 l 38 298 q 32 298 29 302 q 26 305 28 312 z"},"0":{"x_min":0,"x_max":453,"ha":453,"o":"m 30 191 l 30 509 q 30 600 84 656 q 138 711 226 711 q 284 711 329 686 q 374 661 398 615 q 423 569 423 509 l 423 191 q 423 131 398 85 q 374 39 329 14 q 284 -11 226 -11 q 138 -11 84 44 q 30 100 30 191 z m 282 183 l 282 517 q 282 550 266 570 q 251 590 226 590 q 201 590 186 570 q 171 550 171 517 l 171 183 q 171 150 186 130 q 201 110 226 110 q 251 110 266 130 q 282 150 282 183 z"},"F":{"x_min":0,"x_max":421,"ha":421,"o":"m 398 579 l 190 579 q 185 579 185 574 l 185 416 q 185 411 190 411 l 309 411 q 314 411 318 408 q 321 404 321 399 l 321 302 q 321 297 318 294 q 314 290 309 290 l 190 290 q 185 290 185 285 l 185 12 q 185 7 182 4 q 178 0 173 0 l 56 0 q 51 0 48 4 q 44 7 44 12 l 44 688 q 44 693 48 696 q 51 700 56 700 l 398 700 q 403 700 406 696 q 410 693 410 688 l 410 591 q 410 586 406 582 q 403 579 398 579 z"},"`":{"x_min":0,"x_max":220,"ha":220,"o":""},"k":{"x_min":0,"x_max":449,"ha":449,"o":"m 38 12 l 38 688 q 38 693 42 696 q 45 700 50 700 l 167 700 q 172 700 176 696 q 179 693 179 688 l 179 357 q 179 353 181 352 q 183 352 185 355 l 272 506 q 276 514 287 514 l 407 514 q 414 514 416 510 q 419 506 415 500 l 307 332 q 305 328 306 325 l 428 14 q 429 12 429 9 q 429 0 418 0 l 297 0 q 287 0 284 10 l 220 208 q 219 211 217 212 q 215 212 214 209 l 181 157 q 179 153 179 151 l 179 12 q 179 7 176 4 q 172 0 167 0 l 50 0 q 45 0 42 4 q 38 7 38 12 z"},"u":{"x_min":0,"x_max":447,"ha":447,"o":"m 280 514 l 397 514 q 402 514 406 510 q 409 507 409 502 l 409 12 q 409 7 406 4 q 402 0 397 0 l 280 0 q 275 0 272 4 q 268 7 268 12 l 268 29 q 268 32 266 33 q 264 34 262 31 q 247 10 224 2 q 202 -7 172 -7 q 112 -7 73 30 q 34 66 34 142 l 34 502 q 34 507 38 510 q 41 514 46 514 l 163 514 q 168 514 172 510 q 175 507 175 502 l 175 173 q 175 144 186 128 q 198 113 220 113 q 242 113 255 130 q 268 147 268 176 l 268 502 q 268 507 272 510 q 275 514 280 514 z"},"]":{"x_min":0,"x_max":345,"ha":345,"o":"m 304 -147 l 100 -147 q 95 -147 92 -144 q 88 -140 88 -135 l 88 -37 q 88 -32 92 -28 q 95 -25 100 -25 l 170 -25 q 175 -25 175 -20 l 175 674 q 175 679 170 679 l 100 679 q 95 679 92 682 q 88 686 88 691 l 88 788 q 88 793 92 796 q 95 800 100 800 l 304 800 q 309 800 312 796 q 316 793 316 788 l 316 -135 q 316 -140 312 -144 q 309 -147 304 -147 z"},"U":{"x_min":0,"x_max":479,"ha":479,"o":"m 41 199 l 41 688 q 41 693 44 696 q 48 700 53 700 l 170 700 q 175 700 178 696 q 182 693 182 688 l 182 185 q 182 153 198 133 q 214 113 240 113 q 266 113 282 133 q 297 153 297 185 l 297 688 q 297 693 300 696 q 304 700 309 700 l 426 700 q 431 700 434 696 q 438 693 438 688 l 438 199 q 438 105 384 48 q 329 -8 240 -8 q 150 -8 96 48 q 41 105 41 199 z"},"o":{"x_min":0,"x_max":442,"ha":442,"o":"m 31 160 l 31 354 q 31 430 82 476 q 133 522 221 522 q 310 522 361 476 q 412 430 412 354 l 412 160 q 412 82 362 37 q 311 -8 221 -8 q 132 -8 82 37 q 31 82 31 160 z m 271 171 l 271 344 q 271 369 257 385 q 243 401 221 401 q 199 401 186 385 q 172 369 172 344 l 172 171 q 172 146 186 130 q 199 114 221 114 q 243 114 257 130 q 271 146 271 171 z"},"N":{"x_min":0,"x_max":514,"ha":514,"o":"m 342 700 l 458 700 q 463 700 466 696 q 470 693 470 688 l 470 12 q 470 7 466 4 q 463 0 458 0 l 326 0 q 316 0 313 10 l 189 397 q 188 400 186 400 q 183 399 183 396 l 184 12 q 184 7 180 4 q 177 0 172 0 l 56 0 q 51 0 48 4 q 44 7 44 12 l 44 688 q 44 693 48 696 q 51 700 56 700 l 187 700 q 197 700 200 690 l 325 303 q 326 300 328 300 q 331 301 331 304 l 330 688 q 330 693 334 696 q 337 700 342 700 z"},"+":{"x_min":0,"x_max":438,"ha":438,"o":"m 415 352 l 415 270 q 415 265 412 262 q 408 258 403 258 l 277 258 q 272 258 272 253 l 272 128 q 272 123 268 120 q 265 116 260 116 l 178 116 q 173 116 170 120 q 166 123 166 128 l 166 253 q 166 258 161 258 l 36 258 q 31 258 28 262 q 24 265 24 270 l 24 352 q 24 357 28 360 q 31 364 36 364 l 161 364 q 166 364 166 369 l 166 495 q 166 500 170 504 q 173 507 178 507 l 260 507 q 265 507 268 504 q 272 500 272 495 l 272 369 q 272 364 277 364 l 403 364 q 408 364 412 360 q 415 357 415 352 z"},"G":{"x_min":0,"x_max":467,"ha":467,"o":"m 34 181 l 34 519 q 34 605 88 656 q 143 708 233 708 q 323 708 378 656 q 433 604 433 518 l 433 480 q 433 475 430 472 q 426 468 421 468 l 304 468 q 299 468 296 472 q 292 475 292 480 l 292 520 q 292 550 276 568 q 260 587 233 587 q 207 587 191 568 q 175 550 175 520 l 175 180 q 175 150 191 132 q 207 113 233 113 q 260 113 276 132 q 292 150 292 180 l 292 260 q 292 265 287 265 l 243 265 q 238 265 234 268 q 231 272 231 277 l 231 366 q 231 371 234 374 q 238 378 243 378 l 421 378 q 426 378 430 374 q 433 371 433 366 l 433 181 q 433 95 378 44 q 323 -8 233 -8 q 143 -8 88 44 q 34 95 34 181 z"},"q":{"x_min":0,"x_max":448,"ha":448,"o":"m 278 514 l 395 514 q 400 514 404 510 q 407 507 407 502 l 407 -174 q 407 -179 404 -182 q 400 -186 395 -186 l 278 -186 q 273 -186 270 -182 q 266 -179 266 -174 l 266 29 q 266 32 264 32 q 262 33 260 31 q 240 9 216 0 q 192 -8 170 -8 q 102 -8 66 36 q 31 79 31 160 l 31 355 q 31 433 66 478 q 101 522 170 522 q 225 522 260 485 q 262 483 264 484 q 266 484 266 487 l 266 502 q 266 507 270 510 q 273 514 278 514 z m 266 158 l 266 357 q 263 377 250 390 q 237 402 219 402 q 198 402 185 386 q 172 370 172 344 l 172 171 q 172 145 185 129 q 198 113 219 113 q 237 113 250 126 q 263 138 266 158 z"},"d":{"x_min":0,"x_max":445,"ha":445,"o":"m 278 700 l 395 700 q 400 700 404 696 q 407 693 407 688 l 407 12 q 407 7 404 4 q 400 0 395 0 l 278 0 q 273 0 270 4 q 266 7 266 12 l 266 28 q 266 31 264 32 q 262 32 260 30 q 226 -8 170 -8 q 101 -8 66 36 q 31 81 31 160 l 31 354 q 31 435 66 478 q 102 522 170 522 q 192 522 216 514 q 240 505 260 483 q 262 481 264 482 q 266 482 266 485 l 266 688 q 266 693 270 696 q 273 700 278 700 z m 266 157 l 266 357 q 263 377 250 389 q 237 401 219 401 q 198 401 185 385 q 172 369 172 344 l 172 170 q 172 145 185 129 q 198 113 219 113 q 237 113 250 125 q 263 137 266 157 z"},"1":{"x_min":0,"x_max":284,"ha":284,"o":"m 115 700 l 236 700 q 241 700 244 696 q 248 693 248 688 l 248 12 q 248 7 244 4 q 241 0 236 0 l 119 0 q 114 0 110 4 q 107 7 107 12 l 107 558 q 107 562 102 562 l 25 553 l 23 553 q 12 553 12 564 l 9 650 q 9 660 18 664 l 100 697 q 108 700 115 700 z"},"5":{"x_min":0,"x_max":439,"ha":439,"o":"m 416 218 q 416 185 413 155 q 409 78 358 35 q 308 -8 223 -8 q 143 -8 94 32 q 45 72 35 151 l 32 179 q 32 191 44 191 l 161 191 q 173 191 174 179 q 174 173 176 163 q 185 113 223 113 q 243 113 256 126 q 268 140 272 164 q 275 190 275 219 q 275 240 271 270 q 267 293 254 305 q 242 317 223 317 q 185 317 174 282 q 171 271 161 271 l 43 271 q 38 271 34 274 q 31 278 31 283 l 31 688 q 31 693 34 696 q 38 700 43 700 l 396 700 q 401 700 404 696 q 408 693 408 688 l 408 591 q 408 586 404 582 q 401 579 396 579 l 177 579 q 172 579 172 574 l 172 406 q 172 403 174 402 q 176 401 178 404 q 195 421 218 430 q 241 439 267 439 q 331 439 370 397 q 408 355 412 280 q 416 242 416 218 z"}}}
